<svg version="1.1" xmlns="http://www.w3.org/2000/svg" xmlns:xlink="http://www.w3.org/1999/xlink" width="512" height="511.99609" viewBox="0,0,512,511.99609"><g transform="translate(16,76)"><g data-paper-data="{&quot;isPaintingLayer&quot;:true}" fill="#ffffff" fill-rule="nonzero" stroke="none" stroke-width="1" stroke-linecap="butt" stroke-linejoin="miter" stroke-miterlimit="10" stroke-dasharray="" stroke-dashoffset="0" style="mix-blend-mode: normal"><path d="M496,180c0,69.52344 -0.29687,78.24219 -1.53906,105.54688c-1.24609,27.24609 -5.57031,45.85547 -11.90234,62.14063c-13.29687,34.38672 -40.48047,61.57031 -74.86719,74.86719c-16.28516,6.33203 -34.89062,10.65625 -62.14062,11.90234c-27.30078,1.24609 -36.02344,1.53906 -105.54687,1.53906c-69.52344,0 -78.24219,-0.29297 -105.54688,-1.53906c-27.25,-1.24609 -45.85937,-5.57031 -62.14062,-11.90234c-17.08203,-6.42578 -32.55859,-16.50391 -45.34375,-29.52734c-13.02344,-12.78516 -23.10156,-28.26172 -29.52734,-45.33984c-6.32812,-16.28516 -10.65625,-34.89453 -11.89844,-62.14062c-1.25,-27.30078 -1.54687,-36.02344 -1.54687,-105.55078c0,-69.52344 0.29688,-78.24219 1.54688,-105.54687c1.23828,-27.24609 5.5625,-45.85547 11.88672,-62.14062c6.42969,-17.08203 16.51172,-32.55469 29.53516,-45.33984c12.78906,-13.02344 28.26172,-23.10156 45.34375,-29.52734c16.28516,-6.32812 34.89063,-10.65625 62.14063,-11.90234c27.30078,-1.24219 36.02344,-1.53906 105.54688,-1.53906c69.52344,0 78.24609,0.29688 105.54688,1.54688c27.25,1.23828 45.85547,5.5625 62.14063,11.88672c17.08203,6.42969 32.55859,16.51172 45.34375,29.53516c13.02344,12.78906 23.10156,28.26172 29.52734,45.34375c6.32813,16.28125 10.65625,34.89063 11.90234,62.14063c1.24219,27.30078 1.53906,36.01953 1.53906,105.54687zM449.87109,180c0,-68.35547 -0.26172,-76.45312 -1.49219,-103.44531c-1.13672,-24.96094 -5.30859,-38.51563 -8.81641,-47.53516c-4.10156,-11.12109 -10.64453,-21.17969 -19.14844,-29.4375c-8.25781,-8.5 -18.31641,-15.04297 -29.43359,-19.14844c-9.02344,-3.50391 -22.57422,-7.67578 -47.53516,-8.8125c-26.99609,-1.23437 -35.09375,-1.49609 -103.44922,-1.49609h0.00391c-68.35547,0 -76.45312,0.26172 -103.44531,1.49219c-24.96094,1.14062 -38.51563,5.30859 -47.53516,8.81641c-11.12109,4.10156 -21.17969,10.64453 -29.4375,19.14844c-8.5,8.25781 -15.04687,18.31641 -19.15234,29.4375c-3.50391,9.01953 -7.67188,22.57422 -8.8125,47.53516c-1.23047,26.99609 -1.49219,35.08984 -1.49219,103.44922c0,68.35547 0.26172,76.45313 1.49219,103.44531c1.13672,24.96094 5.30859,38.51563 8.8125,47.53516c4.10547,11.12109 10.64844,21.17578 19.15234,29.43359c8.25781,8.50391 18.31641,15.04688 29.43359,19.15234c9.02344,3.50391 22.57813,7.67578 47.53516,8.8125c26.99219,1.23438 35.08594,1.49219 103.44922,1.49219c68.35938,0 76.45703,-0.25781 103.44531,-1.49219c24.96094,-1.13672 38.51563,-5.30859 47.53516,-8.8125c22.32813,-8.61328 39.97266,-26.25781 48.58594,-48.58594c3.50391,-9.01953 7.67578,-22.57422 8.8125,-47.53516c1.23438,-26.99609 1.49219,-35.08984 1.49219,-103.44922zM448.37891,283.44922"/><path d="M371.45703,180c0,72.60156 -58.85547,131.45703 -131.46094,131.45703c-72.60156,0 -131.45703,-58.85547 -131.45703,-131.45703c0,-72.60156 58.85547,-131.46094 131.45703,-131.46094c72.60547,0 131.46094,58.85938 131.46094,131.46094zM325.33203,179.99609c0,-47.125 -38.20312,-85.32812 -85.33203,-85.33203c-47.12891,0 -85.33203,38.20703 -85.33203,85.33203c-0.00391,47.12891 38.20313,85.33203 85.32813,85.33594c47.12891,0 85.33594,-38.20703 85.33594,-85.33594zM239.99609,265.33203"/><path d="M407.37109,43.34766c0,16.96484 -13.75391,30.71875 -30.71875,30.71875c-16.96875,0 -30.72266,-13.75391 -30.72266,-30.71875c0,-16.96875 13.75391,-30.72266 30.72266,-30.72266c16.96484,0 30.71875,13.75391 30.71875,30.72266zM407.37109,43.34766"/></g></g></svg>