<svg version="1.1" xmlns="http://www.w3.org/2000/svg" xmlns:xlink="http://www.w3.org/1999/xlink" width="1024" height="998.73808" viewBox="0,0,1024,998.73808"><g transform="translate(272,332)"><g data-paper-data="{&quot;isPaintingLayer&quot;:true}" fill="#ffffff" fill-rule="evenodd" stroke="none" stroke-width="1" stroke-linecap="butt" stroke-linejoin="miter" stroke-miterlimit="10" stroke-dasharray="" stroke-dashoffset="0" style="mix-blend-mode: normal"><path d="M752,180c0,225.92 -146.56,417.92 -348.8,485.76c-25.6,5.12 -35.2,-10.88 -35.2,-24.32c0,-17.28 0.64,-72.32 0.64,-140.8c0,-48 -16,-78.72 -34.56,-94.72c113.92,-12.8 233.6,-56.32 233.6,-252.8c0,-56.32 -19.84,-101.76 -52.48,-137.6c5.12,-12.8 23.04,-65.28 -5.12,-135.68c0,0 -42.88,-14.08 -140.8,52.48c-40.96,-11.52 -84.48,-17.28 -128,-17.28c-43.52,0 -87.04,5.76 -128,17.28c-97.92,-65.92 -140.8,-52.48 -140.8,-52.48c-28.16,70.4 -10.24,122.88 -5.12,135.68c-32.64,35.84 -52.48,81.92 -52.48,137.6c0,195.84 119.04,240 232.96,252.8c-14.72,12.8 -28.16,35.2 -32.64,68.48c-29.44,13.44 -103.04,35.2 -149.12,-42.24c-9.6,-15.36 -38.4,-53.12 -78.72,-52.48c-42.88,0.64 -17.28,24.32 0.64,33.92c21.76,12.16 46.72,57.6 52.48,72.32c10.24,28.8 43.52,83.84 172.16,60.16c0,42.88 0.64,83.2 0.64,95.36c0,13.44 -9.6,28.8 -35.2,24.32c-203.52,-67.84 -350.08,-259.2 -350.08,-485.76c0,-282.88 229.12,-512 512,-512c282.88,0 512,229.12 512,512z"/></g></g></svg>